<svg id="Layer_1" data-name="Layer 1" xmlns="http://www.w3.org/2000/svg" viewBox="0 0 706 412.4"><defs><style>.cls-1{fill:#333;}</style></defs><title>Niche Systems</title><path class="cls-1" d="M660,47.83a43.51,43.51,0,0,0-38.14-22.11H466.18a43.86,43.86,0,0,0-36.63,19.66l-50.34,76,26.38,42.73L467.07,71.3H619L464.39,334.63l-6.27-10.14L418.53,260.4,307.94,81.33l-22.85-37a38.94,38.94,0,0,0-33.35-18.61h0a39,39,0,0,0-33.33,18.52L46.75,319.5A43.93,43.93,0,0,0,84,386.68h.14l150.3-.43a43.93,43.93,0,0,0,36.34-19.49l59-88L303.41,236.1l-70,104.57L87,341.1,251.68,77l16.66,27,39.6,64.12L418.53,347.14l11.73,19a39.65,39.65,0,0,0,27.86,18.57,38.53,38.53,0,0,0,6.84.51A40,40,0,0,0,499.2,365.4L659.78,91.9A43.44,43.44,0,0,0,660,47.83Z"/></svg>